<?xml version="1.0" encoding="utf-8"?>
<!-- Generator: Adobe Illustrator 19.0.0, SVG Export Plug-In . SVG Version: 6.00 Build 0)  -->
<svg version="1.1" id="Calque_1" xmlns="http://www.w3.org/2000/svg" xmlns:xlink="http://www.w3.org/1999/xlink" x="0px" y="0px"
	 viewBox="0 0 627.9 248.7" style="enable-background:new 0 0 627.9 248.7;" xml:space="preserve">
<style type="text/css">
	.st0{fill:#0014CC;}
</style>
<path d="M298.6,137.6v4.8c-4.9-2.9-9.1-4.3-12.6-4.3c-3.4,0-6.2,1-8.5,3.1c-2.3,2.1-3.4,4.6-3.4,7.6c0,2.2,0.7,4.1,2,5.9
	s4.1,3.4,8.4,5s7.4,3,9.3,4c2,1.1,3.6,2.6,5,4.7c1.4,2,2.1,4.7,2.1,7.9c0,4.3-1.6,8-4.8,11s-7,4.5-11.6,4.5c-4.7,0-9.5-1.6-14.4-4.9
	v-5.1c5.5,4,10.2,6,14.2,6c3.3,0,6.1-1.1,8.4-3.2s3.4-4.8,3.4-8c0-2.4-0.7-4.5-2.1-6.5c-1.4-1.9-4.3-3.7-8.7-5.4
	c-4.3-1.7-7.5-3-9.3-4c-1.9-1-3.5-2.5-4.8-4.4c-1.3-1.9-2-4.3-2-7.3c0-4.1,1.6-7.7,4.8-10.6c3.2-2.9,7-4.4,11.4-4.4
	C290,134,294.3,135.2,298.6,137.6z"/>
<path d="M334.2,134c8.3,0,15.4,2.8,21.2,8.4c5.8,5.6,8.7,12.4,8.7,20.5c0,8-2.9,14.8-8.7,20.4c-5.8,5.6-12.8,8.4-21.2,8.4
	c-8.3,0-15.3-2.8-21.1-8.4c-5.8-5.6-8.6-12.4-8.6-20.4c0-8.1,2.9-14.9,8.6-20.5C318.9,136.8,325.9,134,334.2,134z M334.4,187.7
	c7,0,12.9-2.4,17.7-7.2c4.8-4.8,7.2-10.7,7.2-17.6c0-7-2.4-12.9-7.2-17.7c-4.8-4.8-10.7-7.2-17.7-7.2c-7,0-13,2.4-17.9,7.2
	c-4.9,4.8-7.3,10.7-7.3,17.7c0,7,2.4,12.8,7.3,17.6C321.4,185.3,327.4,187.7,334.4,187.7z"/>
<path d="M411.2,134.7h4.4v30.7c0,8.4-2.2,14.9-6.6,19.5c-4.4,4.6-10,6.8-17,6.8c-6.9,0-12.6-2.3-17-6.8c-4.4-4.5-6.6-10.7-6.6-18.5
	v-31.7h4.4v31.5c0,6.7,1.8,12,5.3,15.7c3.6,3.8,8.2,5.7,13.8,5.7c5.7,0,10.3-1.9,13.9-5.7c3.6-3.8,5.3-9.3,5.3-16.3V134.7z"/>
<path d="M419.3,134.7h3.7l42.7,49.2v-49.2h4.4V191h-3.6l-42.8-49.2l-4.4-5.1V134.7z"/>
<path d="M129.1,134.7h3.7l42.7,49.2v-49.2h4.4V191h-3.6l-42.8-49.2l-4.4-5.1V134.7z"/>
<path d="M81.4,134.7h3.7l42.7,49.2v-49.2h4.4V191h-3.6l-42.8-49.2l-4.4-5.1V134.7z"/>
<rect x="187.8" y="134.7" class="st0" width="33.3" height="4.1"/>
<rect x="187.8" y="160.8" class="st0" width="33.3" height="4.1"/>
<rect x="187.8" y="187" class="st0" width="33.3" height="4.1"/>
<rect x="227.9" y="134.7" class="st0" width="34.8" height="4.1"/>
<rect x="227.9" y="160.8" class="st0" width="34.8" height="4.1"/>
<rect x="227.9" y="187" class="st0" width="34.8" height="4.1"/>
<path d="M517.5,142.6c-5.2-5.2-12.9-7.9-22.8-7.9H475v3.5h4.4v0.1h15.6c7.6,0,13.8,2.3,18.6,6.8c4.8,4.6,7.2,10.5,7.2,17.7
	c0,7.4-2.4,13.3-7.3,17.8c-4.8,4.5-10.9,6.7-18.2,6.7h-15.9v0.2H475v3.4h20.5c9.6,0,16.9-2.7,22.1-8s7.8-12,7.8-20.2
	C525.3,154.6,522.7,147.8,517.5,142.6z"/>
</svg>
